<?xml version="1.0" standalone="no"?>
<!DOCTYPE svg PUBLIC "-//W3C//DTD SVG 20010904//EN"
 "http://www.w3.org/TR/2001/REC-SVG-20010904/DTD/svg10.dtd">
<svg version="1.0" xmlns="http://www.w3.org/2000/svg"
 width="2362.000000pt" height="2362.000000pt" viewBox="0 0 2362.000000 2362.000000"
 preserveAspectRatio="xMidYMid meet">
<metadata>
Created by potrace 1.14, written by Peter Selinger 2001-2017
</metadata>
<g transform="translate(0.000000,2362.000000) scale(0.100000,-0.100000)"
fill="#000000" stroke="none">
<path d="M0 11810 l0 -11810 11810 0 11810 0 0 11810 0 11810 -11810 0 -11810
0 0 -11810z m15741 5374 c370 -443 643 -768 1713 -2044 122 -146 433 -517 691
-825 258 -308 518 -618 577 -688 60 -71 108 -133 108 -138 0 -5 -46 -64 -103
-132 -57 -67 -327 -390 -602 -717 -275 -327 -711 -847 -969 -1155 -259 -308
-537 -639 -618 -736 -81 -97 -148 -180 -148 -183 0 -4 91 -116 203 -248 668
-796 2220 -2647 2246 -2680 13 -17 -68 -18 -1670 -17 l-1684 0 -385 462 c-212
254 -518 620 -680 814 l-294 353 -1576 1 c-866 1 -1581 1 -1589 0 -7 -2 -12 2
-10 8 2 5 128 157 279 338 152 180 635 757 1074 1280 l798 953 491 2 491 3
694 824 c381 452 691 829 689 836 -3 7 -220 268 -483 581 -262 313 -565 674
-672 802 l-195 232 -2179 0 -2178 0 0 -2930 0 -2930 591 0 591 0 -59 -67 c-33
-38 -163 -192 -289 -343 -349 -417 -458 -546 -1124 -1340 -2144 -2556 -2291
-2730 -2296 -2730 -3 0 -4 6 -3 13 1 6 1 2334 0 5172 l-2 5160 -1215 1000
c-668 550 -1351 1112 -1517 1248 -166 137 -322 266 -347 287 l-45 39 5636 0
5635 1 425 -506z"/>
</g>
</svg>
